<mxfile host="app.diagrams.net" modified="2022-01-18T16:01:05.530Z" agent="5.0 (Macintosh; Intel Mac OS X 10_15_7) AppleWebKit/537.36 (KHTML, like Gecko) Chrome/97.0.4692.71 Safari/537.36" etag="vOVvQy2Z46hPOmdj30rr" version="16.3.0" type="github">
  <diagram id="Xyi-lvlP1DtN4LtQ0QXb" name="Page-1">
    <mxGraphModel dx="946" dy="646" grid="1" gridSize="10" guides="1" tooltips="1" connect="1" arrows="1" fold="1" page="1" pageScale="1" pageWidth="827" pageHeight="1169" math="0" shadow="0">
      <root>
        <mxCell id="0" />
        <mxCell id="1" parent="0" />
        <mxCell id="b6xSzfsq8EjYy4gzawE1-14" value="&lt;p style=&quot;margin: 0px ; margin-top: 6px ; text-align: center&quot;&gt;&lt;b&gt;CountDown&lt;/b&gt;&lt;/p&gt;&lt;hr&gt;&lt;p style=&quot;margin: 0px ; margin-left: 8px&quot;&gt;&lt;b&gt;&lt;u&gt;State&lt;/u&gt;&lt;/b&gt;&lt;span&gt;&amp;nbsp; &amp;nbsp;&lt;/span&gt;&lt;/p&gt;&amp;nbsp; &amp;nbsp; &amp;nbsp;time: number&lt;br&gt;&amp;nbsp; &amp;nbsp; delay: number&lt;br&gt;&amp;nbsp; &amp;nbsp; &amp;nbsp;....&lt;br&gt;&lt;br&gt;&lt;p style=&quot;margin: 0px 0px 0px 8px&quot;&gt;&lt;b&gt;&lt;u&gt;Props&lt;/u&gt;&lt;/b&gt;&lt;/p&gt;&lt;div&gt;&lt;p style=&quot;margin: 0px 0px 0px 8px&quot;&gt;&lt;span&gt;&amp;nbsp; millisecond: number&lt;/span&gt;&lt;br&gt;&lt;/p&gt;&amp;nbsp; &amp;nbsp; timeDes: string&lt;u&gt;&lt;br&gt;&lt;/u&gt;&lt;/div&gt;&lt;div&gt;&lt;p style=&quot;margin: 0px 0px 0px 8px&quot;&gt;&amp;nbsp; children: Jsx&lt;/p&gt;&lt;p style=&quot;margin: 0px 0px 0px 8px&quot;&gt;&amp;nbsp; clearOnHide: Boolean&lt;br&gt;&lt;/p&gt;&lt;p style=&quot;margin: 0px 0px 0px 8px&quot;&gt;&amp;nbsp;&amp;nbsp;onEnd: () =&amp;gt; void&lt;/p&gt;&lt;p style=&quot;margin: 0px 0px 0px 8px&quot;&gt;&lt;br&gt;&lt;/p&gt;&lt;/div&gt;&lt;div&gt;&lt;p style=&quot;margin: 0px 0px 0px 8px&quot;&gt;&lt;b&gt;&lt;u&gt;Methods&lt;/u&gt;&lt;/b&gt;&lt;/p&gt;&lt;p style=&quot;margin: 0px 0px 0px 8px&quot;&gt;&amp;nbsp;&amp;nbsp;&lt;span&gt;clearCountdown():void&lt;/span&gt;&lt;/p&gt;&lt;p style=&quot;margin: 0px 0px 0px 8px&quot;&gt;&lt;span&gt;&amp;nbsp; .....&lt;/span&gt;&lt;/p&gt;&lt;/div&gt;&lt;div&gt;&lt;b&gt;&lt;u&gt;&lt;br&gt;&lt;/u&gt;&lt;/b&gt;&lt;/div&gt;" style="align=left;overflow=fill;html=1;dropTarget=0;" parent="1" vertex="1">
          <mxGeometry x="90" y="160" width="180" height="270" as="geometry" />
        </mxCell>
        <mxCell id="b6xSzfsq8EjYy4gzawE1-15" value="" style="shape=component;jettyWidth=8;jettyHeight=4;" parent="b6xSzfsq8EjYy4gzawE1-14" vertex="1">
          <mxGeometry x="1" width="20" height="20" relative="1" as="geometry">
            <mxPoint x="-24" y="4" as="offset" />
          </mxGeometry>
        </mxCell>
      </root>
    </mxGraphModel>
  </diagram>
</mxfile>
